<?xml version="1.0" encoding="UTF-8" standalone="no"?>
<!-- Created with Inkscape (http://www.inkscape.org/) -->

<svg
   width="40.748611mm"
   height="27.751553mm"
   viewBox="0 0 40.748611 27.751553"
   version="1.1"
   id="svg1"
   xmlns="http://www.w3.org/2000/svg"
   xmlns:svg="http://www.w3.org/2000/svg">
  <defs
     id="defs1">
    <clipPath
       clipPathUnits="userSpaceOnUse"
       id="clipPath59">
      <rect
         style="display:inline;opacity:1;fill:#c97527;fill-opacity:1;stroke-width:11.3157;stroke-linejoin:bevel;paint-order:stroke fill markers"
         id="rect60"
         width="100"
         height="50"
         x="0"
         y="4.4408921e-16" />
    </clipPath>
  </defs>
  <g
     id="layer1"
     transform="translate(-148.69583,-156.63334)">
    <path
       style="fill:#480000;fill-opacity:1;stroke-width:0.182792"
       d="m 49.986269,45.732343 c -0.300399,-0.022 -0.448634,-0.05335 -0.480407,-0.101592 -0.09351,-0.142011 -0.05407,-0.610416 0.069,-0.819702 0.22487,-0.382379 0.426392,-1.106201 0.426392,-1.531504 0,-0.104621 0.03151,-0.380619 0.07,-0.613313 0.06058,-0.366132 0.165574,-1.113788 0.245774,-1.750202 0.01312,-0.104276 0.0585,-0.401019 0.100808,-0.659431 0.08842,-0.540183 0.09955,-1.265768 0.02641,-1.725055 -0.02777,-0.174438 -0.05862,-0.743736 -0.06855,-1.265106 -0.02254,-1.184042 -0.102351,-2.166262 -0.186538,-2.295727 -0.127929,-0.196742 -0.400394,-0.179785 -0.793201,0.04936 -0.129331,0.07545 -0.254563,0.137187 -0.278289,0.137187 -0.02372,0 -0.195145,0.08533 -0.380937,0.189588 -0.185791,0.104276 -0.365962,0.18959 -0.40038,0.18959 -0.03442,0 -0.190222,0.06189 -0.346231,0.137578 -0.481317,0.233457 -0.630261,0.281618 -1.171951,0.378953 -0.108572,0.01951 -0.275125,0.05921 -0.370125,0.08818 -0.306314,0.09349 -0.576227,0.153631 -0.689561,0.153631 -0.06082,0 -0.258115,0.03097 -0.438424,0.0688 -0.873469,0.183305 -1.197509,0.222746 -2.108404,0.256633 -0.852975,0.03175 -1.009223,0.04962 -1.181069,0.135186 -0.277956,0.138404 -0.419612,0.288716 -0.599598,0.63622 -0.311185,0.600818 -0.325514,0.689853 -0.294491,1.829822 0.01544,0.567057 0.03572,1.07367 0.04508,1.125807 0.0093,0.05213 0.03387,0.244096 0.05445,0.426575 0.0206,0.18248 0.08324,0.534404 0.13921,0.782057 0.05596,0.24765 0.111406,0.51426 0.123183,0.592467 0.06415,0.425945 0.172602,0.965646 0.219057,1.090137 0.158249,0.424078 0.582513,1.13866 0.893686,1.505227 0.133658,0.157455 0.17164,0.317103 0.145709,0.612543 -0.01759,0.200328 -0.03652,0.229648 -0.194994,0.301872 -0.156901,0.0715 -0.338299,0.07738 -1.710207,0.05518 -1.862374,-0.03009 -2.003335,-0.05648 -2.163887,-0.405075 -0.08999,-0.19541 -0.09423,-0.242132 -0.03921,-0.433431 0.08996,-0.312751 0.117976,-0.97695 0.05505,-1.304551 -0.03004,-0.156412 -0.09913,-0.646972 -0.153497,-1.090137 -0.100071,-0.8155 -0.21324,-1.521844 -0.292366,-1.824798 -0.02382,-0.09123 -0.08159,-0.33652 -0.128368,-0.545067 -0.07792,-0.347449 -0.372904,-1.206174 -0.540567,-1.573642 -0.03807,-0.08344 -0.123035,-0.185581 -0.188796,-0.226966 -0.109459,-0.06887 -0.136776,-0.06863 -0.323103,0.003 -0.328691,0.126311 -0.833142,0.742858 -1.183707,1.446737 -0.05716,0.114769 -0.163496,0.304683 -0.236279,0.421991 -0.12678,0.204326 -0.293525,0.581672 -0.345593,0.782056 -0.01356,0.05213 -0.04369,0.137453 -0.06699,0.189588 -0.02328,0.05213 -0.132478,0.440474 -0.242629,0.86297 -0.166177,0.637356 -0.200262,0.847225 -0.200157,1.23233 1.2e-4,0.443451 0.0076,0.476036 0.16734,0.730481 0.245736,0.39139 0.424731,0.796054 0.424731,0.960227 0,0.213016 -0.465689,0.33342 -1.130564,0.292309 -0.568655,-0.03516 -2.44874,-0.210659 -2.614014,-0.244008 -0.06453,-0.01302 -0.181134,-0.08492 -0.259085,-0.159799 -0.124355,-0.119434 -0.141468,-0.169945 -0.139573,-0.412297 0.002,-0.271571 0.04015,-0.493175 0.140958,-0.821251 0.02804,-0.09123 0.09856,-0.347186 0.156729,-0.568768 0.139078,-0.529848 0.281793,-0.965122 0.369192,-1.126034 0.03883,-0.0715 0.07074,-0.175381 0.0709,-0.230851 3.73e-4,-0.10105 0.07355,-0.297277 0.247892,-0.664119 0.05129,-0.107927 0.107973,-0.257215 0.125978,-0.33178 0.01799,-0.07457 0.118986,-0.311107 0.224381,-0.525651 0.105404,-0.214544 0.191649,-0.421917 0.191649,-0.460827 0,-0.03891 0.05343,-0.183309 0.118712,-0.320884 0.174825,-0.368344 0.276079,-0.694662 0.276079,-0.889734 0,-0.09485 0.02146,-0.288333 0.04767,-0.429981 0.05407,-0.292084 0.121315,-1.318563 0.221792,-3.385763 0.03803,-0.782053 0.08178,-1.528564 0.09725,-1.658904 0.04695,-0.395804 0.07209,-1.886188 0.03475,-2.062432 -0.02584,-0.122013 -0.06385,-0.169241 -0.145387,-0.180537 -0.09068,-0.01259 -0.128558,0.02554 -0.212015,0.213287 -0.05588,0.125724 -0.146844,0.324436 -0.202125,0.44159 -0.05527,0.117141 -0.131151,0.314443 -0.16862,0.438422 -0.03746,0.123982 -0.101798,0.337397 -0.142969,0.474257 -0.04118,0.136865 -0.09591,0.355482 -0.121615,0.485822 -0.108031,0.547661 -0.167922,0.774363 -0.278662,1.05509 -0.09181,0.232735 -0.117054,0.389298 -0.117054,0.725925 0,0.236056 -0.0245,0.473176 -0.05445,0.52693 -0.02996,0.05376 -0.07345,0.20699 -0.09665,0.340515 -0.07718,0.444228 -0.154848,0.763097 -0.209167,0.858942 -0.02956,0.05213 -0.06827,0.254761 -0.08602,0.450275 -0.02878,0.316805 -0.03298,0.288442 -0.03865,-0.260687 -0.0035,-0.33889 0.02639,-0.925434 0.06642,-1.303425 0.04004,-0.377994 0.09574,-1.156494 0.123782,-1.730003 0.02805,-0.573505 0.08377,-1.437321 0.123832,-1.919589 0.04005,-0.482267 0.07295,-1.004822 0.07309,-1.161235 3.71e-4,-0.48705 0.280719,-1.814059 0.470554,-2.227671 0.141149,-0.307544 0.219478,-0.512125 0.219478,-0.573261 0,-0.140157 0.763237,-1.649201 1.120285,-2.214994 0.145215,-0.230112 0.357845,-0.535484 0.472508,-0.678602 0.114678,-0.143119 0.259307,-0.32715 0.321435,-0.40896 0.134823,-0.177543 0.823735,-0.908937 1.170294,-1.242463 0.562958,-0.541782 1.208824,-1.040326 1.850465,-1.428366 0.522285,-0.315858 0.664461,-0.392183 1.171002,-0.628632 0.686647,-0.320518 0.844005,-0.384593 0.944491,-0.384593 0.04885,0 0.103907,-0.01451 0.122399,-0.03225 0.06494,-0.06237 0.703978,-0.194085 1.229697,-0.253469 0.422382,-0.0477 0.730876,-0.04839 1.50517,-0.0033 0.535647,0.03118 1.040525,0.07595 1.121952,0.09953 0.158806,0.04595 0.325376,0.07178 1.739949,0.26954 0.530753,0.07421 0.607849,0.07324 1.727244,-0.02184 0.644431,-0.05473 1.360456,-0.132373 1.591167,-0.172529 0.775269,-0.134933 1.305306,-0.21158 1.690232,-0.244418 0.426218,-0.03636 0.471516,3.6e-4 0.283762,0.229536 -0.05428,0.06627 -0.0987,0.135129 -0.0987,0.153005 0,0.01789 -0.08884,0.20169 -0.197399,0.408483 -0.108572,0.206798 -0.1974,0.417055 -0.1974,0.467242 0,0.05018 -0.03426,0.214928 -0.07612,0.366093 -0.08989,0.324475 -0.06157,1.210758 0.0554,1.733484 0.08323,0.372031 0.400128,1.104079 0.574361,1.326775 0.06593,0.08428 0.132724,0.185214 0.148421,0.224316 0.06094,0.151804 0.637642,0.755164 0.93969,0.983141 0.36101,0.272485 0.946316,0.628195 1.417967,0.861749 0.176424,0.08736 0.576046,0.321208 0.888047,0.519651 0.312,0.198443 0.611799,0.38345 0.666224,0.411129 0.05442,0.02768 0.196662,0.118325 0.316089,0.201438 0.119434,0.0831 0.235824,0.151114 0.258659,0.151114 0.02283,0 0.13765,0.07047 0.255135,0.156608 0.117478,0.08613 0.284238,0.184699 0.370551,0.219037 0.08632,0.03435 0.156936,0.0805 0.156936,0.10257 0,0.05844 0.519544,0.417805 0.72074,0.498545 0.188555,0.07566 0.267131,0.05572 0.264614,-0.06718 -0.0026,-0.129937 -0.158165,-0.273578 -0.596966,-0.551421 -0.227185,-0.143855 -0.436556,-0.280306 -0.465268,-0.303226 -0.02872,-0.02291 -0.161957,-0.121901 -0.296101,-0.219947 -0.134138,-0.09805 -0.254998,-0.192677 -0.268567,-0.210287 -0.01356,-0.0176 -0.15792,-0.129713 -0.320777,-0.249118 -0.162852,-0.119409 -0.435734,-0.337031 -0.6064,-0.483611 -0.170665,-0.146582 -0.327398,-0.266512 -0.348294,-0.266512 -0.03284,0 -0.957401,-0.880828 -1.371444,-1.306584 -0.154224,-0.158584 -0.487134,-0.62667 -0.789934,-1.110678 -0.383334,-0.612735 -0.427328,-0.743825 -0.587258,-1.749827 -0.127551,-0.802332 -0.133045,-0.893893 -0.07523,-1.252349 0.105991,-0.657056 0.199566,-0.995665 0.325989,-1.179618 0.0668,-0.0972 0.12144,-0.198451 0.12144,-0.225005 0,-0.07399 0.422851,-0.609905 0.711476,-0.901699 0.427388,-0.43208 0.724789,-0.653996 1.188492,-0.886838 0.851503,-0.42757 2.594132,-0.381165 4.082764,0.108722 1.166792,0.383974 1.238177,0.398882 1.913087,0.399568 0.878978,8.96e-4 2.178608,0.12119 2.591024,0.239846 0.189997,0.05467 0.43045,0.119372 0.534339,0.143808 0.448857,0.105554 1.166169,0.559995 1.563031,0.990218 0.206301,0.223639 0.435491,0.559668 0.695066,1.019064 0.05893,0.104275 0.234882,0.392213 0.391031,0.639864 0.51429,0.81567 1.3471,2.3741 1.55771,2.914935 0.0797,0.20465 0.170623,0.37555 0.365643,0.68726 0.100325,0.160358 0.462309,0.934304 0.498785,1.066442 0.02158,0.07821 0.08496,0.26814 0.140799,0.422082 0.05585,0.153941 0.101545,0.335234 0.10151,0.402876 -4e-5,0.137019 0.113088,0.764963 0.222839,1.236822 0.03941,0.169446 0.09476,0.478714 0.123009,0.687261 0.03904,0.288211 0.07771,0.403453 0.161212,0.480368 0.11754,0.108273 0.708802,0.34889 0.858515,0.34938 0.04966,1.63e-4 0.323461,0.06393 0.608456,0.141741 0.348681,0.09517 0.691775,0.151714 1.04891,0.172848 0.577469,0.03417 0.762895,0.112097 0.498636,0.209541 -0.617408,0.227676 -1.910554,0.246967 -2.739115,0.04085 -0.205495,-0.05111 -0.315639,-0.02393 -0.3649,0.09009 -0.01883,0.04361 -0.05306,0.815125 -0.07605,1.714489 -0.03258,1.274452 -0.06375,1.760686 -0.141309,2.203973 -0.05473,0.31282 -0.130801,0.750064 -0.169025,0.971645 -0.09049,0.524543 -0.337116,1.218807 -0.530922,1.494607 -0.253798,0.361181 -0.786035,0.846787 -1.153436,1.052385 -0.507731,0.284122 -0.945904,0.366667 -1.579196,0.29749 -0.406006,-0.04435 -0.563555,-0.08687 -0.888652,-0.239814 -0.497846,-0.234219 -0.741348,-0.506557 -0.875793,-0.979518 -0.0503,-0.176948 -0.109805,-0.378485 -0.132229,-0.447859 -0.05284,-0.163475 0.02819,-0.591503 0.147168,-0.777397 0.08681,-0.135662 0.719839,-0.495446 0.87074,-0.494902 0.116345,3.59e-4 0.212538,0.209491 0.212538,0.461977 0,0.180384 0.03228,0.30086 0.114643,0.427878 0.06306,0.09725 0.128527,0.213009 0.145505,0.257265 0.06279,0.163697 0.323878,0.241957 0.69629,0.208715 0.526299,-0.04699 0.744818,-0.243793 0.892743,-0.804067 0.101084,-0.382893 0.136702,-1.146579 0.07212,-1.546896 -0.03153,-0.195515 -0.07337,-0.515449 -0.09297,-0.710961 -0.03436,-0.342707 -0.112811,-0.753349 -0.375736,-1.966987 -0.163029,-0.752499 -0.219014,-0.976271 -0.27273,-1.09014 -0.02458,-0.05213 -0.144442,-0.32828 -0.266325,-0.613649 -0.152816,-0.357802 -0.279199,-0.575508 -0.407151,-0.701357 -0.192299,-0.189141 -1.081187,-0.634369 -1.365587,-0.683996 -0.08386,-0.01464 -0.285729,-0.06853 -0.44858,-0.119759 -0.41811,-0.131547 -1.137451,-0.274794 -1.379894,-0.274794 -0.112846,0 -0.389612,-0.0448 -0.615019,-0.09954 -0.502294,-0.121989 -0.524685,-0.107939 -0.618527,0.388261 -0.126881,0.670924 -0.232454,0.844825 -0.547142,0.901289 -0.131706,0.02363 -0.32945,0.08322 -0.439417,0.132414 -0.109966,0.0492 -0.326717,0.126341 -0.481663,0.171438 -0.342398,0.09963 -0.75019,0.413099 -0.906684,0.696945 -0.03912,0.07097 -0.124119,0.204008 -0.188862,0.295642 -0.206206,0.291838 -0.295444,0.80666 -0.296091,1.708202 -4.85e-4,0.672401 0.01724,0.873789 0.107155,1.216843 0.121414,0.463304 0.345729,1.013667 0.71142,1.74549 0.136777,0.273716 0.315737,0.636306 0.397686,0.805753 0.322323,0.666454 0.513748,1.016325 0.635349,1.161233 0.04374,0.05215 0.163775,0.24409 0.266719,0.426561 0.102939,0.18247 0.225484,0.385094 0.272309,0.450274 0.241802,0.336583 0.531771,0.818197 0.727699,1.208646 0.09751,0.194335 0.166429,0.876675 0.234548,2.322469 0.04298,0.912314 0.119073,1.117502 0.641519,1.730002 0.443489,0.519932 0.587385,0.76419 0.589056,0.999907 8.58e-4,0.11982 -0.02739,0.251353 -0.06278,0.292297 -0.105335,0.121889 -0.838166,0.323359 -1.363043,0.374718 -0.269349,0.02636 -0.802327,0.04065 -1.184398,0.03179 -0.757901,-0.01759 -0.921331,-0.06594 -1.129473,-0.334136 -0.111141,-0.143224 -0.111613,-0.154331 -0.05577,-1.355855 0.03789,-0.815002 0.0051,-1.08281 -0.186193,-1.520847 -0.05011,-0.114804 -0.112017,-0.298144 -0.137521,-0.407475 -0.0868,-0.372057 -0.43182,-0.998462 -0.763585,-1.38639 -0.02789,-0.03259 -0.407856,-0.367639 -0.844398,-0.744539 -0.43654,-0.376897 -0.956959,-0.851453 -1.156483,-1.054568 -0.538532,-0.548226 -0.714492,-0.615272 -0.857124,-0.326591 -0.04381,0.08867 -0.07965,0.189976 -0.07968,0.22514 -2e-5,0.03516 -0.06413,0.194048 -0.142458,0.353079 -0.07834,0.159034 -0.1574,0.382984 -0.175696,0.497673 -0.03453,0.216424 -0.08928,0.387317 -0.20576,0.642262 -0.03753,0.08216 -0.06824,0.187276 -0.06824,0.23362 0,0.04634 -0.02012,0.149768 -0.04474,0.229825 -0.02459,0.08005 -0.08194,0.305523 -0.12742,0.501036 -0.04547,0.195514 -0.111867,0.440796 -0.147561,0.545069 -0.06914,0.202013 -0.116431,0.371529 -0.251291,0.900549 -0.04652,0.182479 -0.147993,0.449088 -0.225506,0.592467 -0.0775,0.143376 -0.141105,0.314008 -0.141307,0.379176 -2.05e-4,0.06518 -0.02373,0.199266 -0.05229,0.297984 -0.06373,0.220393 0.06033,0.773163 0.220495,0.982465 0.05686,0.07431 0.197758,0.252925 0.313113,0.396944 0.166504,0.207876 0.209737,0.301004 0.209737,0.451797 0,0.303958 -0.01989,0.307665 -1.702571,0.317094 -0.814271,0.0046 -1.675999,-0.006 -1.91495,-0.02352 z"
       id="path30"
       clip-path="url(#clipPath59)"
       transform="translate(117.44556,138.62792)" />
  </g>
</svg>
